# xmcd CD database file
#
# Track frame offsets:
#	150
#	22509
#	40344
#	61697
#	78021
#	99374
#	127518
#	155180
#	170682
#	198160
#
# Disc length: 2915 seconds
#
# Revision: 0
# Processed by: cddbd v1.5.1PL0 Copyright (c) Steve Scherf et al.
# Submitted via: CDex 1.51
#
DISCID=660b610a
DTITLE=Paul Wood - Blues Is My Business
DYEAR=1900
DGENRE=Blues
TTITLE0=She Don't Play By The Rules
TTITLE1=Blues Guitar
TTITLE2=Cryin' Won't Help Ya
TTITLE3=Blues Is My Business
TTITLE4=Blame It On The Whiskey
TTITLE5=Seventh Day
TTITLE6=Another Day
TTITLE7=Everything Dies But The Blues
TTITLE8=Don't Call Me
TTITLE9=The Mojo Man
EXTD=
EXTT0=
EXTT1=
EXTT2=
EXTT3=
EXTT4=
EXTT5=
EXTT6=
EXTT7=
EXTT8=
EXTT9=
PLAYORDER=
